<?xml version="1.0" standalone="no"?>
<!DOCTYPE svg PUBLIC "-//W3C//DTD SVG 20010904//EN"
 "http://www.w3.org/TR/2001/REC-SVG-20010904/DTD/svg10.dtd">
<svg version="1.0" xmlns="http://www.w3.org/2000/svg"
 width="731.000000pt" height="477.000000pt" viewBox="0 0 731.000000 477.000000"
 preserveAspectRatio="xMidYMid meet">

<g transform="translate(0.000000,477.000000) scale(0.100000,-0.100000)"
fill="#2749A1" stroke="none">
<path d="M5130 4749 c-220 -23 -513 -92 -788 -185 -871 -295 -1778 -878 -2436
-1565 -132 -138 -306 -337 -306 -350 0 -21 19 -5 79 66 94 110 356 364 511
495 765 646 1743 1126 2590 1271 116 20 170 23 380 23 212 1 258 -2 340 -20
167 -37 315 -110 397 -196 152 -158 195 -428 122 -767 -42 -197 -174 -553
-290 -783 -44 -88 -48 -127 -5 -59 74 116 197 342 267 486 183 381 258 661
247 930 -6 137 -34 238 -94 336 -72 120 -226 229 -389 278 -156 47 -403 62
-625 40z m476 -24 c572 -98 752 -513 519 -1195 -24 -70 -65 -174 -90 -231 -47
-107 -200 -407 -215 -422 -4 -5 25 74 65 175 127 317 185 558 185 769 0 141
-21 244 -70 345 -255 525 -1331 478 -2535 -110 -497 -243 -900 -506 -1325
-864 -73 -62 -72 -61 20 28 52 51 158 145 235 210 817 686 1845 1183 2675
1294 146 19 425 20 536 1z"/>
<path d="M2490 3150 c-192 -20 -323 -98 -383 -228 -32 -68 -31 -199 1 -264 55
-112 185 -190 412 -248 206 -53 257 -83 266 -157 14 -114 -144 -182 -274 -117
-58 29 -98 84 -109 148 -5 31 -9 36 -34 36 -43 0 -333 -21 -337 -25 -2 -1 4
-33 13 -70 33 -143 128 -262 242 -305 102 -38 153 -45 323 -44 148 1 173 3
241 26 183 61 293 190 306 362 7 85 -11 157 -56 228 -62 98 -171 151 -455 223
-146 36 -173 46 -194 70 -25 30 -25 72 1 103 18 23 72 42 115 42 86 0 150 -42
179 -118 l17 -44 125 6 c69 4 150 9 179 13 l54 6 -7 35 c-20 109 -85 208 -169
257 -91 53 -293 82 -456 65z"/>
<path d="M10 2980 l0 -150 195 0 195 0 0 -470 0 -470 190 0 190 0 0 470 0 470
195 0 195 0 0 150 0 150 -580 0 -580 0 0 -150z"/>
<path d="M4020 2980 l0 -150 195 0 195 0 0 -470 0 -470 190 0 190 0 0 470 0
470 200 0 200 0 0 150 0 150 -585 0 -585 0 0 -150z"/>
<path d="M6113 2708 c4 -458 6 -478 64 -592 32 -64 116 -147 181 -180 90 -46
170 -59 357 -60 135 -1 183 3 235 17 153 43 264 147 322 303 22 57 22 73 26
497 l3 437 -190 0 -191 0 0 -407 c0 -374 -2 -411 -19 -448 -36 -81 -111 -120
-216 -113 -78 5 -134 39 -167 101 -23 41 -23 48 -26 455 l-3 412 -190 0 -190
0 4 -422z"/>
<path d="M1415 2528 c-70 -39 -97 -104 -70 -174 27 -72 98 -108 167 -85 117
39 132 203 24 255 -39 18 -92 20 -121 4z"/>
<path d="M5461 2522 c-75 -40 -94 -152 -36 -212 75 -78 192 -56 230 44 46 121
-79 229 -194 168z"/>
<path d="M3565 2478 c-32 -17 -45 -39 -45 -79 0 -29 7 -43 31 -63 39 -33 69
-33 108 0 23 19 31 34 31 59 0 47 -8 64 -41 80 -33 18 -57 18 -84 3z"/>
<path d="M1336 2091 c-74 -116 -197 -342 -267 -486 -130 -270 -209 -507 -239
-713 -19 -130 -8 -318 24 -418 83 -258 296 -409 644 -455 124 -16 425 -6 582
20 894 151 1942 694 2770 1437 259 232 675 682 602 652 -4 -1 -44 -43 -89 -93
-44 -49 -147 -155 -229 -235 -808 -787 -1986 -1396 -2949 -1525 -142 -20 -415
-22 -533 -6 -264 38 -445 132 -547 287 -182 274 -113 759 202 1423 65 137 79
191 29 112z m-162 -373 c-128 -322 -184 -558 -184 -776 0 -147 19 -235 70
-339 88 -178 254 -287 517 -340 112 -22 490 -25 628 -4 859 128 1863 606 2635
1252 196 164 207 173 135 105 -474 -450 -995 -816 -1570 -1104 -630 -314
-1224 -484 -1700 -485 -326 0 -545 70 -695 222 -123 125 -172 260 -172 476 -1
292 114 640 359 1093 24 45 46 82 47 82 2 0 -30 -82 -70 -182z"/>
</g>
</svg>
